<svg version="1.2" baseProfile="tiny" xmlns="http://www.w3.org/2000/svg" xmlns:xlink="http://www.w3.org/1999/xlink" x="0px"
	 y="0px" width="500px" height="500px" viewBox="0 0 500 500" overflow="inherit" xml:space="preserve">
<g id="gridareas">
	<polygon id="grid-item-0" points="300,100 300,100 250,100 250,150 	"/>
	<polygon id="grid-item-1" points="400,200 350,150 350,200 	"/>
	<polygon id="grid-item-2" points="350,150 350,100 300,100 300,100 	"/>
	<polygon id="grid-item-3" points="350,200 350,150 300,200 	"/>
	<polygon id="grid-item-4" points="300,150 350,150 300,100 	"/>
	<polygon id="grid-item-5" points="300,200 350,150 300,150 	"/>
	<polygon id="grid-item-6" points="100,100 100,150 150,150 	"/>
	<polygon id="grid-item-7" points="150,100 100,100 150,150 	"/>
	<polygon id="grid-item-8" points="150,150 100,150 100,200 100,200 	"/>
	<polygon id="grid-item-9" points="250,150 250,100 200,100 200,100 	"/>
	<polygon id="grid-item-10" points="200,100 200,100 150,100 150,150 	"/>
	<polygon id="grid-item-11" points="300,400 350,350 300,350 	"/>
	<polygon id="grid-item-12" points="350,250 400,200 400,200 350,200 	"/>
	<polygon id="grid-item-13" points="300,350 350,350 300,300 	"/>
	<polygon id="grid-item-14" points="250,350 300,400 300,400 300,350 	"/>
	<polygon id="grid-item-15" points="200,300 250,350 250,300 	"/>
	<polygon id="grid-item-16" points="250,300 250,350 300,300 	"/>
	<polygon id="grid-item-17" points="300,300 300,300 250,350 300,350 	"/>
	<polygon id="grid-item-18" points="300,300 350,350 350,300 	"/>
	<polygon id="grid-item-19" points="300,300 350,250 300,250 	"/>
	<polygon id="grid-item-20" points="200,300 200,350 250,350 200,300 	"/>
	<polygon id="grid-item-21" points="300,200 300,200 350,250 350,200 	"/>
	<polygon id="grid-item-22" points="350,350 400,300 350,300 	"/>
	<polygon id="grid-item-23" points="300,300 350,300 350,250 300,300 	"/>
	<polygon id="grid-item-24" points="400,300 400,300 350,250 350,300 	"/>
	<polygon id="grid-item-25" points="300,250 350,250 300,200 	"/>
	<polygon id="grid-item-26" points="350,250 400,250 400,200 400,200 	"/>
	<polygon id="grid-item-27" points="400,300 400,300 400,250 350,250 	"/>
	<polygon id="grid-item-28" points="350,350 400,350 400,300 400,300 	"/>
	<polygon id="grid-item-29" points="350,400 400,400 350,350 	"/>
	<polygon id="grid-item-30" points="400,400 400,350 350,350 	"/>
	<polygon id="grid-item-31" points="400,100 350,50 350,50 350,100 	"/>
	<polygon id="grid-item-32" points="300,400 300,400 350,400 350,350 	"/>
	<polygon id="grid-item-33" points="350,150 400,100 350,100 	"/>
	<polygon id="grid-item-34" points="350,100 350,50 300,100 	"/>
	<polygon id="grid-item-35" points="400,200 400,200 400,150 350,150 	"/>
	<polygon id="grid-item-36" points="400,150 400,100 350,150 	"/>
	<polygon id="grid-item-37" points="100,350 100,400 150,350 	"/>
	<polygon id="grid-item-38" points="100,300 100,300 100,350 150,350 	"/>
	<polygon id="grid-item-39" points="100,400 150,400 150,350 	"/>
	<polygon id="grid-item-40" points="100,200 100,200 100,250 150,250 	"/>
	<polygon id="grid-item-41" points="150,250 100,250 100,300 100,300 	"/>
	<polygon id="grid-item-42" points="200,400 200,400 250,400 250,350 	"/>
	<polygon id="grid-item-43" points="250,350 250,400 300,400 300,400 	"/>
	<polygon id="grid-item-44" points="150,350 150,400 200,400 200,400 	"/>
	<polygon id="grid-item-45" points="300,200 300,200 250,200 250,250 	"/>
	<polygon id="grid-item-46" points="300,100 300,100 250,150 300,150 	"/>
	<polygon id="grid-item-47" points="250,250 250,200 200,200 200,200 	"/>
	<polygon id="grid-item-48" points="400,50 350,50 400,100 	"/>
	<polygon id="grid-item-49" points="200,200 200,200 200,250 250,250 	"/>
	<polygon id="grid-item-50" points="350,50 300,50 300,100 	"/>
	<polygon id="grid-item-51" points="200,400 200,400 250,350 200,350 	"/>
	<polygon id="grid-item-52" points="200,200 150,250 200,250 	"/>
	<polygon id="grid-item-53" points="100,200 100,200 150,250 150,200 	"/>
	<polygon id="grid-item-54" points="200,200 150,200 150,250 200,200 	"/>
	<polygon id="grid-item-55" points="150,150 100,200 150,200 	"/>
	<polygon id="grid-item-56" points="200,200 150,150 150,200 	"/>
	<polygon id="grid-item-57" points="200,100 150,150 200,150 	"/>
	<polygon id="grid-item-58" points="200,150 150,150 200,200 	"/>
	<polygon id="grid-item-59" points="200,300 150,350 200,350 	"/>
	<polygon id="grid-item-60" points="250,150 200,100 200,100 200,150 	"/>
	<polygon id="grid-item-61" points="150,300 150,350 200,300 	"/>
	<polygon id="grid-item-62" points="150,350 200,400 200,350 	"/>
	<polygon id="grid-item-63" points="150,250 100,300 100,300 150,300 	"/>
	<polygon id="grid-item-64" points="200,300 200,300 150,250 150,300 	"/>
	<polygon id="grid-item-65" points="100,300 150,350 150,300 	"/>
	<polygon id="grid-item-66" points="200,250 150,250 200,300 	"/>
	<polygon id="grid-item-67" points="300,300 300,300 300,250 250,250 	"/>
	<polygon id="grid-item-68" points="250,250 250,300 300,300 300,300 	"/>
	<polygon id="grid-item-69" points="250,250 200,250 200,300 200,300 	"/>
	<polygon id="grid-item-70" points="200,300 200,300 250,300 250,250 	"/>
	<polygon id="grid-item-71" points="300,200 300,150 250,150 300,200 	"/>
	<polygon id="grid-item-72" points="250,250 300,250 300,200 300,200 	"/>
	<polygon id="grid-item-73" points="250,200 250,150 200,200 	"/>
	<polygon id="grid-item-74" points="300,200 250,150 250,200 	"/>
	<polygon id="grid-item-75" points="200,200 200,200 250,150 200,150 	"/>
	<polygon id="grid-item-76" points="450,350 450,400 500,400 450,350 	"/>
	<polygon id="grid-item-77" points="50,350 50,300 0,300 50,350 	"/>
	<polygon id="grid-item-78" points="0,300 0,350 50,350 	"/>
	<polygon id="grid-item-79" points="50,350 0,350 0,400 50,350 	"/>
	<polygon id="grid-item-80" points="150,450 100,500 150,500 150,450 	"/>
	<polygon id="grid-item-81" points="50,200 0,200 50,250 	"/>
	<polygon id="grid-item-82" points="50,150 50,150 0,200 50,200 	"/>
	<polygon id="grid-item-83" points="0,200 0,250 50,250 	"/>
	<polygon id="grid-item-84" points="50,350 50,350 0,400 50,400 	"/>
	<polygon id="grid-item-85" points="50,500 100,500 50,450 	"/>
	<polygon id="grid-item-86" points="50,450 50,400 0,400 50,450 	"/>
	<polygon id="grid-item-87" points="150,450 100,450 100,500 150,450 	"/>
	<polygon id="grid-item-88" points="50,450 50,450 100,500 100,450 	"/>
	<polygon id="grid-item-89" points="50,450 0,500 50,500 50,450 	"/>
	<polygon id="grid-item-90" points="0,400 0,450 50,450 	"/>
	<polygon id="grid-item-91" points="50,450 0,450 0,500 50,450 	"/>
	<polygon id="grid-item-92" points="150,50 150,50 100,0 100,50 	"/>
	<polygon id="grid-item-93" points="150,50 150,0 100,0 150,50 	"/>
	<polygon id="grid-item-94" points="50,50 100,50 100,0 50,50 	"/>
	<polygon id="grid-item-95" points="0,150 0,200 50,150 	"/>
	<polygon id="grid-item-96" points="250,50 200,0 200,50 	"/>
	<polygon id="grid-item-97" points="200,0 150,0 150,50 	"/>
	<polygon id="grid-item-98" points="150,50 200,50 200,0 150,50 	"/>
	<polygon id="grid-item-99" points="100,0 50,0 50,50 	"/>
	<polygon id="grid-item-100" points="50,50 50,0 0,0 50,50 	"/>
	<polygon id="grid-item-101" points="50,150 50,100 0,100 50,150 	"/>
	<polygon id="grid-item-102" points="50,150 0,100 0,150 50,150 	"/>
	<polygon id="grid-item-103" points="50,50 50,50 0,100 50,100 	"/>
	<polygon id="grid-item-104" points="50,50 0,0 0,50 50,50 	"/>
	<polygon id="grid-item-105" points="0,50 0,100 50,50 	"/>
	<polygon id="grid-item-106" points="150,500 200,500 150,450 	"/>
	<polygon id="grid-item-107" points="500,300 500,250 450,250 	"/>
	<polygon id="grid-item-108" points="500,250 500,200 450,250 	"/>
	<polygon id="grid-item-109" points="450,300 500,300 450,250 	"/>
	<polygon id="grid-item-110" points="500,350 500,300 450,350 	"/>
	<polygon id="grid-item-111" points="450,350 450,350 500,300 450,300 	"/>
	<polygon id="grid-item-112" points="450,350 500,400 500,350 450,350 	"/>
	<polygon id="grid-item-113" points="450,250 500,200 450,200 	"/>
	<polygon id="grid-item-114" points="450,50 450,100 500,100 450,50 	"/>
	<polygon id="grid-item-115" points="500,100 500,50 450,50 	"/>
	<polygon id="grid-item-116" points="450,50 450,50 500,50 500,0 	"/>
	<polygon id="grid-item-117" points="450,450 450,450 500,400 450,400 	"/>
	<polygon id="grid-item-118" points="450,150 450,200 500,200 450,150 	"/>
	<polygon id="grid-item-119" points="450,150 450,150 500,100 450,100 	"/>
	<polygon id="grid-item-120" points="500,200 500,150 450,150 	"/>
	<polygon id="grid-item-121" points="450,150 500,150 500,100 450,150 	"/>
	<polygon id="grid-item-122" points="150,450 150,450 200,500 200,450 	"/>
	<polygon id="grid-item-123" points="250,500 300,500 250,450 	"/>
	<polygon id="grid-item-124" points="250,450 300,500 300,450 	"/>
	<polygon id="grid-item-125" points="300,100 300,50 250,50 300,100 	"/>
	<polygon id="grid-item-126" points="350,450 300,450 300,500 350,450 	"/>
	<polygon id="grid-item-127" points="250,0 200,0 250,50 	"/>
	<polygon id="grid-item-128" points="200,500 250,500 250,450 	"/>
	<polygon id="grid-item-129" points="200,450 200,500 250,450 	"/>
	<polygon id="grid-item-130" points="450,450 500,500 500,450 450,450 	"/>
	<polygon id="grid-item-131" points="400,500 450,500 450,450 	"/>
	<polygon id="grid-item-132" points="450,450 450,500 500,500 450,450 	"/>
	<polygon id="grid-item-133" points="350,450 350,500 400,500 350,450 	"/>
	<polygon id="grid-item-134" points="500,450 500,400 450,450 	"/>
	<polygon id="grid-item-135" points="350,450 350,450 400,500 400,450 	"/>
	<polygon id="grid-item-136" points="450,450 400,450 400,500 450,450 	"/>
	<polygon id="grid-item-137" points="300,500 350,500 350,450 	"/>
	<polygon id="grid-item-138" points="100,350 50,350 50,350 100,400 	"/>
	<polygon id="grid-item-139" points="50,350 50,400 100,400 	"/>
	<polygon id="grid-item-140" points="100,300 50,350 100,350 	"/>
	<polygon id="grid-item-141" points="100,200 50,250 100,250 	"/>
	<polygon id="grid-item-142" points="50,400 50,450 100,400 	"/>
	<polygon id="grid-item-143" points="100,300 50,250 50,300 100,300 	"/>
	<polygon id="grid-item-144" points="50,300 50,350 100,300 	"/>
	<polygon id="grid-item-145" points="100,250 50,250 100,300 	"/>
	<polygon id="grid-item-146" points="300,0 250,0 250,50 	"/>
	<polygon id="grid-item-147" points="50,450 100,450 100,400 	"/>
	<polygon id="grid-item-148" points="150,450 200,450 200,400 	"/>
	<polygon id="grid-item-149" points="250,400 250,450 300,400 	"/>
	<polygon id="grid-item-150" points="100,450 150,450 100,400 	"/>
	<polygon id="grid-item-151" points="150,400 150,450 200,400 	"/>
	<polygon id="grid-item-152" points="100,400 150,450 150,450 150,400 	"/>
	<polygon id="grid-item-153" points="200,400 250,450 250,400 	"/>
	<polygon id="grid-item-154" points="200,100 150,50 150,100 	"/>
	<polygon id="grid-item-155" points="200,50 150,50 200,100 	"/>
	<polygon id="grid-item-156" points="150,100 150,50 150,50 100,100 	"/>
	<polygon id="grid-item-157" points="250,100 250,50 200,100 	"/>
	<polygon id="grid-item-158" points="300,100 250,50 250,100 	"/>
	<polygon id="grid-item-159" points="200,100 250,50 200,50 200,100 	"/>
	<polygon id="grid-item-160" points="150,50 100,50 100,100 	"/>
	<polygon id="grid-item-161" points="100,100 50,150 50,150 100,150 	"/>
	<polygon id="grid-item-162" points="100,200 50,200 50,250 100,200 	"/>
	<polygon id="grid-item-163" points="100,150 50,150 100,200 	"/>
	<polygon id="grid-item-164" points="50,150 50,200 100,200 	"/>
	<polygon id="grid-item-165" points="100,50 50,50 100,100 	"/>
	<polygon id="grid-item-166" points="50,100 50,150 100,100 	"/>
	<polygon id="grid-item-167" points="50,50 50,100 100,100 	"/>
	<polygon id="grid-item-168" points="200,400 200,450 250,450 200,400 	"/>
	<polygon id="grid-item-169" points="400,100 450,50 400,50 	"/>
	<polygon id="grid-item-170" points="450,100 450,50 400,100 	"/>
	<polygon id="grid-item-171" points="300,400 250,450 300,450 300,400 	"/>
	<polygon id="grid-item-172" points="450,50 500,0 450,0 450,50 	"/>
	<polygon id="grid-item-173" points="400,150 450,150 450,150 400,100 	"/>
	<polygon id="grid-item-174" points="450,150 450,100 400,100 	"/>
	<polygon id="grid-item-175" points="300,50 300,0 250,50 	"/>
	<polygon id="grid-item-176" points="450,0 400,0 450,50 	"/>
	<polygon id="grid-item-177" points="350,0 300,0 350,50 	"/>
	<polygon id="grid-item-178" points="450,200 450,150 400,200 	"/>
	<polygon id="grid-item-179" points="350,50 350,50 300,0 300,50 	"/>
	<polygon id="grid-item-180" points="450,50 450,50 400,0 400,50 	"/>
	<polygon id="grid-item-181" points="350,50 400,0 350,0 350,50 	"/>
	<polygon id="grid-item-182" points="350,50 400,50 400,0 350,50 	"/>
	<polygon id="grid-item-183" points="400,200 450,150 400,150 	"/>
	<polygon id="grid-item-184" points="450,400 450,350 400,400 	"/>
	<polygon id="grid-item-185" points="450,450 450,400 400,400 	"/>
	<polygon id="grid-item-186" points="350,450 400,450 400,400 	"/>
	<polygon id="grid-item-187" points="400,450 450,450 400,400 	"/>
	<polygon id="grid-item-188" points="300,450 350,450 300,400 	"/>
	<polygon id="grid-item-189" points="350,400 350,450 350,450 400,400 	"/>
	<polygon id="grid-item-190" points="300,400 350,450 350,400 	"/>
	<polygon id="grid-item-191" points="400,300 450,300 450,250 400,300 	"/>
	<polygon id="grid-item-192" points="400,300 450,250 400,250 	"/>
	<polygon id="grid-item-193" points="400,400 450,350 450,350 400,350 	"/>
	<polygon id="grid-item-194" points="400,250 450,250 400,200 	"/>
	<polygon id="grid-item-195" points="400,200 450,250 450,200 400,200 	"/>
	<polygon id="grid-item-196" points="450,350 450,300 400,300 	"/>
	<polygon id="grid-item-197" points="400,350 450,350 400,300 	"/>
	<polygon id="grid-item-198" points="50,250 0,250 0,300 0,300 50,250 	"/>
	<polygon id="grid-item-199" points="50,250 0,300 50,300 	"/>
</g>
<g id="lines">
	<rect fill="none" stroke="#231F20" stroke-width="0.25" stroke-miterlimit="10" stroke-dasharray="5,2" width="500" height="500"/>
	<line fill="none" stroke="#231F20" stroke-width="0.25" stroke-miterlimit="10" stroke-dasharray="5,2" x1="0" y1="450" x2="500" y2="450"/>
	<line fill="none" stroke="#231F20" stroke-width="0.25" stroke-miterlimit="10" stroke-dasharray="5,2" x1="0" y1="400" x2="500" y2="400"/>
	<line fill="none" stroke="#231F20" stroke-width="0.25" stroke-miterlimit="10" stroke-dasharray="5,2" x1="0" y1="350" x2="500" y2="350"/>
	<line fill="none" stroke="#231F20" stroke-width="0.25" stroke-miterlimit="10" stroke-dasharray="5,2" x1="0" y1="300" x2="500" y2="300"/>
	<line fill="none" stroke="#231F20" stroke-miterlimit="10" stroke-dasharray="5,2" x1="0" y1="250" x2="450" y2="250"/>
	<line fill="none" stroke="#231F20" stroke-width="0.25" stroke-miterlimit="10" stroke-dasharray="5,2" x1="0" y1="200" x2="500" y2="200"/>
	<line fill="none" stroke="#231F20" stroke-width="0.25" stroke-miterlimit="10" stroke-dasharray="5,2" x1="0" y1="150" x2="500" y2="150"/>
	<line fill="none" stroke="#231F20" stroke-width="0.25" stroke-miterlimit="10" stroke-dasharray="5,2" x1="0" y1="100" x2="500" y2="100"/>
	<line fill="none" stroke="#231F20" stroke-width="0.25" stroke-miterlimit="10" stroke-dasharray="5,2" x1="0" y1="50" x2="500" y2="50"/>
	<line fill="none" stroke="#231F20" stroke-width="0.25" stroke-miterlimit="10" stroke-dasharray="5,2" x1="450" y1="0" x2="450" y2="500"/>
	<line fill="none" stroke="#231F20" stroke-width="0.25" stroke-miterlimit="10" stroke-dasharray="5,2" x1="400" y1="0" x2="400" y2="500"/>
	<line fill="none" stroke="#231F20" stroke-width="0.25" stroke-miterlimit="10" stroke-dasharray="5,2" x1="350" y1="0" x2="350" y2="500"/>
	<line fill="none" stroke="#231F20" stroke-width="0.25" stroke-miterlimit="10" stroke-dasharray="5,2" x1="300" y1="0" x2="300" y2="500"/>
	<line fill="none" stroke="#231F20" stroke-miterlimit="10" stroke-dasharray="5,2" x1="250" y1="0" x2="250" y2="500"/>
	<line fill="none" stroke="#231F20" stroke-width="0.25" stroke-miterlimit="10" stroke-dasharray="5,2" x1="200" y1="0" x2="200" y2="500"/>
	<line fill="none" stroke="#231F20" stroke-width="0.25" stroke-miterlimit="10" stroke-dasharray="5,2" x1="150" y1="0" x2="150" y2="500"/>
	<line fill="none" stroke="#231F20" stroke-width="0.25" stroke-miterlimit="10" stroke-dasharray="5,2" x1="100" y1="0" x2="100" y2="500"/>
	<line fill="none" stroke="#231F20" stroke-width="0.25" stroke-miterlimit="10" stroke-dasharray="5,2" x1="50" y1="0" x2="50" y2="500"/>
	<line fill="none" stroke="#231F20" stroke-width="0.25" stroke-miterlimit="10" stroke-dasharray="5,2" x1="0" y1="0" x2="500" y2="500"/>
	<line fill="none" stroke="#231F20" stroke-width="0.25" stroke-miterlimit="10" stroke-dasharray="5,2" x1="100" y1="0" x2="500" y2="400"/>
	<line fill="none" stroke="#231F20" stroke-width="0.25" stroke-miterlimit="10" stroke-dasharray="5,2" x1="200" y1="0" x2="500" y2="300"/>
	<line fill="none" stroke="#231F20" stroke-width="0.25" stroke-miterlimit="10" stroke-dasharray="5,2" x1="300" y1="0" x2="500" y2="200"/>
	<line fill="none" stroke="#231F20" stroke-width="0.25" stroke-miterlimit="10" stroke-dasharray="5,2" x1="400" y1="0" x2="500" y2="100"/>
	<line fill="none" stroke="#231F20" stroke-width="0.25" stroke-miterlimit="10" stroke-dasharray="5,2" x1="0" y1="100" x2="400" y2="500"/>
	<line fill="none" stroke="#231F20" stroke-width="0.25" stroke-miterlimit="10" stroke-dasharray="5,2" x1="0" y1="100" x2="300" y2="500"/>
	<line fill="none" stroke="#231F20" stroke-width="0.25" stroke-miterlimit="10" stroke-dasharray="5,2" x1="0" y1="300" x2="200" y2="500"/>
	<line fill="none" stroke="#231F20" stroke-width="0.25" stroke-miterlimit="10" stroke-dasharray="5,2" x1="0" y1="400" x2="100" y2="500"/>
	<line fill="none" stroke="#231F20" stroke-width="0.25" stroke-miterlimit="10" stroke-dasharray="5,2" x1="500" y1="0" x2="0" y2="500"/>
	<line fill="none" stroke="#231F20" stroke-width="0.25" stroke-miterlimit="10" stroke-dasharray="5,2" x1="400" y1="0" x2="0" y2="400"/>
	<line fill="none" stroke="#231F20" stroke-width="0.25" stroke-miterlimit="10" stroke-dasharray="5,2" x1="300" y1="0" x2="0" y2="300"/>
	<line fill="none" stroke="#231F20" stroke-width="0.25" stroke-miterlimit="10" stroke-dasharray="5,2" x1="200" y1="0" x2="0" y2="200"/>
	<line fill="none" stroke="#231F20" stroke-width="0.25" stroke-miterlimit="10" stroke-dasharray="5,2" x1="100" y1="0" x2="0" y2="100"/>
	<line fill="none" stroke="#231F20" stroke-width="0.25" stroke-miterlimit="10" stroke-dasharray="5,2" x1="500" y1="100" x2="100" y2="500"/>
	<line fill="none" stroke="#231F20" stroke-width="0.25" stroke-miterlimit="10" stroke-dasharray="5,2" x1="500" y1="200" x2="200" y2="500"/>
	<line fill="none" stroke="#231F20" stroke-width="0.25" stroke-miterlimit="10" stroke-dasharray="5,2" x1="500" y1="300" x2="300" y2="500"/>
	<line fill="none" stroke="#231F20" stroke-width="0.25" stroke-miterlimit="10" stroke-dasharray="5,2" x1="500" y1="400" x2="400" y2="500"/>
</g>
</svg>
